<svg width="516" height="683" viewBox="0 0 387 512.25" xmlns="http://www.w3.org/2000/svg" xmlns:xlink="http://www.w3.org/1999/xlink">
<g id="graph0" class="graph" transform="translate(-3.721566373107038,383.95246659110535) scale(1.0255111161527706)">
<title>a</title>
<polygon fill="white" stroke="transparent" points="-4,4 -4,-216.8 483.6,-216.8 483.6,4 -4,4"/>
<!-- 0 -->
<g id="node1" class="node">
<title>0</title>
<ellipse fill="none" stroke="black" cx="58.6" cy="-134" rx="18" ry="18"/>
<text text-anchor="middle" x="58.6" y="-129.8" font-family="Times,serif" font-size="14.00">0</text>
</g>
<!-- 1 -->
<g id="node2" class="node">
<title>1</title>
<ellipse fill="none" stroke="black" cx="137.6" cy="-78" rx="18" ry="18"/>
<text text-anchor="middle" x="137.6" y="-73.8" font-family="Times,serif" font-size="14.00">1</text>
</g>
<!-- 0&#45;&gt;1 -->
<g id="edge2" class="edge">
<title>0-&gt;1</title>
<path fill="none" stroke="black" d="M73.72,-123.73C85.12,-115.44 101.36,-103.63 114.48,-94.09"/>
<polygon fill="black" stroke="black" points="116.54,-96.92 122.57,-88.21 112.42,-91.26 116.54,-96.92"/>
<text text-anchor="middle" x="98.1" y="-112.2" font-family="Times,serif" font-size="14.00">0</text>
</g>
<!-- 2 -->
<g id="node3" class="node">
<title>2</title>
<ellipse fill="none" stroke="black" cx="295.6" cy="-118" rx="18" ry="18"/>
<text text-anchor="middle" x="295.6" y="-113.8" font-family="Times,serif" font-size="14.00">2</text>
</g>
<!-- 0&#45;&gt;2 -->
<g id="edge3" class="edge">
<title>0-&gt;2</title>
<path fill="none" stroke="black" d="M76.73,-133.01C111.31,-130.97 191.94,-126.1 259.6,-121 262.15,-120.81 264.81,-120.6 267.47,-120.38"/>
<polygon fill="black" stroke="black" points="267.84,-123.86 277.52,-119.54 267.26,-116.89 267.84,-123.86"/>
<text text-anchor="middle" x="177.1" y="-131.2" font-family="Times,serif" font-size="14.00">1</text>
</g>
<!-- 1&#45;&gt;0 -->
<g id="edge4" class="edge">
<title>1-&gt;0</title>
<path fill="none" stroke="black" d="M119.6,-77.48C111.51,-77.96 102,-79.64 94.6,-84.2 85.02,-90.11 77.35,-99.72 71.67,-108.93"/>
<polygon fill="black" stroke="black" points="68.5,-107.42 66.64,-117.85 74.6,-110.86 68.5,-107.42"/>
<text text-anchor="middle" x="98.1" y="-89.2" font-family="Times,serif" font-size="14.00">0</text>
</g>
<!-- 3 -->
<g id="node4" class="node">
<title>3</title>
<ellipse fill="none" stroke="black" cx="216.6" cy="-78" rx="18" ry="18"/>
<text text-anchor="middle" x="216.6" y="-73.8" font-family="Times,serif" font-size="14.00">3</text>
</g>
<!-- 1&#45;&gt;3 -->
<g id="edge5" class="edge">
<title>1-&gt;3</title>
<path fill="none" stroke="black" d="M155.69,-78C165.26,-78 177.42,-78 188.28,-78"/>
<polygon fill="black" stroke="black" points="188.56,-81.5 198.56,-78 188.56,-74.5 188.56,-81.5"/>
<text text-anchor="middle" x="177.1" y="-82.2" font-family="Times,serif" font-size="14.00">1</text>
</g>
<!-- 2&#45;&gt;3 -->
<g id="edge6" class="edge">
<title>2-&gt;3</title>
<path fill="none" stroke="black" d="M285.57,-103.04C279.44,-94.38 270.47,-84.22 259.6,-79.2 255.04,-77.09 249.89,-76.03 244.8,-75.61"/>
<polygon fill="black" stroke="black" points="244.69,-72.11 234.65,-75.5 244.61,-79.11 244.69,-72.11"/>
<text text-anchor="middle" x="256.1" y="-84.2" font-family="Times,serif" font-size="14.00">0</text>
</g>
<!-- 4 -->
<g id="node5" class="node">
<title>4</title>
<ellipse fill="none" stroke="black" cx="378.6" cy="-118" rx="18" ry="18"/>
<ellipse fill="none" stroke="black" cx="378.6" cy="-118" rx="22" ry="22"/>
<text text-anchor="middle" x="378.6" y="-113.8" font-family="Times,serif" font-size="14.00">4</text>
</g>
<!-- 2&#45;&gt;4 -->
<g id="edge7" class="edge">
<title>2-&gt;4</title>
<path fill="none" stroke="black" d="M313.78,-118C323.21,-118 335.2,-118 346.24,-118"/>
<polygon fill="black" stroke="black" points="346.41,-121.5 356.41,-118 346.41,-114.5 346.41,-121.5"/>
<text text-anchor="middle" x="335.1" y="-122.2" font-family="Times,serif" font-size="14.00">1</text>
</g>
<!-- 3&#45;&gt;2 -->
<g id="edge8" class="edge">
<title>3-&gt;2</title>
<path fill="none" stroke="black" d="M232.81,-85.9C243.57,-91.49 258.21,-99.1 270.54,-105.5"/>
<polygon fill="black" stroke="black" points="268.93,-108.61 279.42,-110.11 272.16,-102.4 268.93,-108.61"/>
<text text-anchor="middle" x="256.1" y="-104.2" font-family="Times,serif" font-size="14.00">0</text>
</g>
<!-- 5 -->
<g id="node6" class="node">
<title>5</title>
<ellipse fill="none" stroke="black" cx="461.6" cy="-61" rx="18" ry="18"/>
<text text-anchor="middle" x="461.6" y="-56.8" font-family="Times,serif" font-size="14.00">5</text>
</g>
<!-- 3&#45;&gt;5 -->
<g id="edge9" class="edge">
<title>3-&gt;5</title>
<path fill="none" stroke="black" d="M234.65,-75.27C240.35,-74.44 246.74,-73.59 252.6,-73 317.25,-66.53 393.57,-63.23 433.36,-61.84"/>
<polygon fill="black" stroke="black" points="433.7,-65.33 443.58,-61.5 433.46,-58.33 433.7,-65.33"/>
<text text-anchor="middle" x="335.1" y="-71.2" font-family="Times,serif" font-size="14.00">1</text>
</g>
<!-- 4&#45;&gt;0 -->
<g id="edge10" class="edge">
<title>4-&gt;0</title>
<path fill="none" stroke="black" d="M368.01,-137.68C355.2,-160.79 330.18,-196 296.6,-196 136.6,-196 136.6,-196 136.6,-196 110.94,-196 88.98,-174.85 75.16,-157.25"/>
<polygon fill="black" stroke="black" points="77.82,-154.96 69.05,-149.01 72.19,-159.13 77.82,-154.96"/>
<text text-anchor="middle" x="216.6" y="-200.2" font-family="Times,serif" font-size="14.00">1</text>
</g>
<!-- 4&#45;&gt;5 -->
<g id="edge11" class="edge">
<title>4-&gt;5</title>
<path fill="none" stroke="black" d="M393.61,-101.46C400.56,-93.97 409.43,-85.42 418.6,-79.2 423.53,-75.86 429.18,-72.91 434.7,-70.41"/>
<polygon fill="black" stroke="black" points="436.42,-73.49 444.32,-66.42 433.74,-67.02 436.42,-73.49"/>
<text text-anchor="middle" x="422.1" y="-84.2" font-family="Times,serif" font-size="14.00">0</text>
</g>
<!-- 5&#45;&gt;1 -->
<g id="edge12" class="edge">
<title>5-&gt;1</title>
<path fill="none" stroke="black" d="M450.66,-46.54C436.95,-28.51 410.41,0 379.6,0 215.6,0 215.6,0 215.6,0 185.33,0 162.95,-30.12 150.34,-52.93"/>
<polygon fill="black" stroke="black" points="147.21,-51.35 145.69,-61.84 153.42,-54.59 147.21,-51.35"/>
<text text-anchor="middle" x="295.6" y="-4.2" font-family="Times,serif" font-size="14.00">1</text>
</g>
<!-- 5&#45;&gt;4 -->
<g id="edge13" class="edge">
<title>5-&gt;4</title>
<path fill="none" stroke="black" d="M449.22,-74.41C442.78,-81.44 434.3,-89.85 425.6,-96 420.51,-99.6 414.73,-102.89 409.04,-105.76"/>
<polygon fill="black" stroke="black" points="407.21,-102.75 399.66,-110.18 410.2,-109.08 407.21,-102.75"/>
<text text-anchor="middle" x="422.1" y="-105.2" font-family="Times,serif" font-size="14.00" style="">0</text>
</g>
<!-- I -->
<g id="node7" class="node">
<title>I</title>
<ellipse fill="black" stroke="black" cx="1.8" cy="-134" rx="1.8" ry="1.8"/>
</g>
<!-- I&#45;&gt;0 -->
<g id="edge1" class="edge">
<title>I-&gt;0</title>
<path fill="none" stroke="black" d="M3.75,-134C7.11,-134 18.87,-134 30.55,-134"/>
<polygon fill="black" stroke="black" points="30.58,-137.5 40.58,-134 30.58,-130.5 30.58,-137.5"/>
</g>
</g>
</svg>